<?xml version="1.0" encoding="UTF-8"?>
<svg width="51px" height="30px" viewBox="0 0 51 30" version="1.1" xmlns="http://www.w3.org/2000/svg" xmlns:xlink="http://www.w3.org/1999/xlink">
    <title>Flecha</title>
    <g id="Page-1" stroke="none" stroke-width="1" fill="none" fill-rule="evenodd">
        <g id="Landing" transform="translate(-380, -3145)" fill="#BF1920">
            <path d="M402.274609,3173.63777 C404.081206,3175.45408 406.916323,3175.45408 408.750882,3173.63777 L429.402738,3153.19145 C431.237297,3151.37515 431.654297,3148.8162 429.791776,3146.9999 L429.041662,3146.22956 C427.37366,3144.79843 425.428468,3144.46863 423.982948,3146.03698 C418.896272,3151.07303 413.809596,3156.0814 408.722919,3161.11745 C406.916323,3162.90487 404.081206,3162.90487 402.274609,3161.11745 C397.187933,3156.0814 392.101257,3151.07303 387.042543,3146.03698 C385.570276,3144.46863 383.623869,3144.79843 381.983829,3146.22956 L381.205752,3146.9999 C379.343231,3148.8162 379.760232,3151.37515 381.622753,3153.19145 L402.274609,3173.63777 Z" id="Flecha"></path>
        </g>
    </g>
</svg>