<?xml version="1.0" encoding="UTF-8"?>
<svg width="12px" height="7px" viewBox="0 0 12 7" version="1.1" xmlns="http://www.w3.org/2000/svg" xmlns:xlink="http://www.w3.org/1999/xlink">
    <title>Flecha</title>
    <g id="Page-1" stroke="none" stroke-width="1" fill="none" fill-rule="evenodd">
        <g id="Landing" transform="translate(-466, -59)" fill="#FFFFFF">
            <g id="Menu" transform="translate(415, 32)">
                <path d="M51.374874,28.9113379 L56.1456834,33.6821473 C56.5630274,34.1059509 57.2179711,34.1059509 57.6417746,33.6821473 L62.412584,28.9113379 C62.8363876,28.4875344 62.9327194,27.8904459 62.5024562,27.4666424 L62.3291714,27.286898 C61.9438443,26.9529666 61.4944834,26.8760135 61.160552,27.2419619 C59.985473,28.4170408 58.810394,29.5856603 57.6353151,30.7607392 C57.2179711,31.1778024 56.5630274,31.1778024 56.1456834,30.7607392 C54.9706044,29.5856603 53.7955255,28.4170408 52.6269061,27.2419619 C52.286796,26.8760135 51.8371541,26.9529666 51.4582867,27.286898 L51.2785423,27.4666424 C50.8482791,27.8904459 50.9446109,28.4875344 51.374874,28.9113379" id="Flecha"></path>
            </g>
        </g>
    </g>
</svg>