<?xml version="1.0" encoding="UTF-8"?>
<svg width="63px" height="79px" viewBox="0 0 63 79" version="1.1" xmlns="http://www.w3.org/2000/svg" xmlns:xlink="http://www.w3.org/1999/xlink">
    <title>Group 9 Copy</title>
    <defs>
        <polygon id="path-1" points="0.779605263 79 62.7796053 79 62.7796053 0 0.779605263 0"></polygon>
    </defs>
    <g id="Page-1" stroke="none" stroke-width="1" fill="none" fill-rule="evenodd">
        <g id="Landing" transform="translate(-869, -2266)">
            <g id="Group-7" transform="translate(730, 2186)">
                <g id="Group-9-Copy" transform="translate(139, 80)">
                    <path d="M57.9408956,67.4358432 C57.9408956,68.3461076 57.2183149,69.0878656 56.3279924,69.0878656 L51.4892827,69.0878656 C50.5989601,69.0878656 49.8763795,68.3461076 49.8763795,67.4358432 C49.8763795,66.5255789 50.5989601,65.7838208 51.4892827,65.7838208 L53.1021859,65.7838208 L57.9408956,65.7838208 L57.9408956,67.4358432 Z M53.1021859,75.6959552 L49.8763795,75.6959552 C48.9860569,75.6959552 48.2634762,74.9541972 48.2634762,74.0439328 C48.2634762,73.1336685 48.9860569,72.3919104 49.8763795,72.3919104 L51.4892827,72.3919104 L54.7150891,72.3919104 L54.7150891,74.0439328 C54.7150891,74.9541972 53.9925085,75.6959552 53.1021859,75.6959552 L53.1021859,75.6959552 Z M51.4892827,52.5676417 L56.3279924,52.5676417 C57.2183149,52.5676417 57.9408956,53.3093997 57.9408956,54.2196641 C57.9408956,55.1299284 57.2183149,55.8716865 56.3279924,55.8716865 L53.1021859,55.8716865 L51.4892827,55.8716865 C50.5989601,55.8716865 49.8763795,55.1299284 49.8763795,54.2196641 C49.8763795,53.3093997 50.5989601,52.5676417 51.4892827,52.5676417 L51.4892827,52.5676417 Z M51.4892827,60.8277537 C51.4892827,59.9174893 52.2118633,59.1757313 53.1021859,59.1757313 L56.3279924,59.1757313 L57.9408956,59.1757313 C58.8312182,59.1757313 59.5537988,59.9174893 59.5537988,60.8277537 C59.5537988,61.738018 58.8312182,62.4797761 57.9408956,62.4797761 L53.1021859,62.4797761 C52.2118633,62.4797761 51.4892827,61.738018 51.4892827,60.8277537 L51.4892827,60.8277537 Z M16.0054117,74.0439328 L22.4570246,74.0439328 L22.4570246,49.2635969 L16.0054117,49.2635969 L16.0054117,74.0439328 Z M62.7796053,60.8277537 C62.7796053,59.0683498 61.8731537,57.5286649 60.5199278,56.649789 C60.9199278,55.9278552 61.166702,55.1068001 61.166702,54.2196641 C61.166702,51.487219 58.9957343,49.2635969 56.3279924,49.2635969 L51.4892827,49.2635969 C48.8215407,49.2635969 46.650573,51.487219 46.650573,54.2196641 C46.650573,55.9757639 47.5537988,57.5121447 48.9021859,58.3926726 C48.5021859,59.1146064 48.2634762,59.9406176 48.2634762,60.8277537 C48.2634762,61.7148897 48.5102504,62.5359448 48.9102504,63.2578786 C47.5570246,64.1367545 46.650573,65.6764394 46.650573,67.4358432 C46.650573,68.3229793 46.8973472,69.1440344 47.2973472,69.8659682 C45.9441214,70.7448441 45.0376698,72.284529 45.0376698,74.0439328 L32.134444,74.0439328 C29.9279924,74.0439328 29.5570246,73.7399607 29.2296053,73.4739851 C28.5070246,72.880909 27.7392827,72.3919104 25.6828311,72.3919104 L25.6828311,52.5676417 L27.7876698,52.5676417 L33.2699278,48.8010306 L33.5779924,48.5267949 C37.0876698,44.4826441 38.5860569,40.7507255 38.5860569,36.0474177 L38.5634762,34.4102635 C38.6054117,34.368963 38.7860569,34.2847098 39.100573,34.3094902 C39.3425085,34.3276624 39.9521859,34.4399999 40.4376698,35.0842887 C41.8812182,36.9973306 42.5763795,38.0645371 42.5763795,41.4131865 C42.5763795,43.7854906 42.2521859,45.2078819 42.0392827,46.1495347 C41.9118633,46.7095703 41.8118633,47.1523123 41.8118633,47.6115745 L41.8118633,52.3247944 C40.2408956,57.6343944 38.2279924,61.5282112 33.650573,63.2826589 L34.7828311,66.3768969 C41.0199278,63.9864205 43.3650891,58.5545708 44.9699278,53.0401201 L45.0376698,47.6181826 C45.0457343,47.4348081 45.1118633,47.203525 45.1812182,46.8979008 C45.4134762,45.875299 45.8021859,44.1654558 45.8021859,41.4131865 C45.8021859,37.1096681 44.6876698,35.3122678 42.9892827,33.0638653 C41.6876698,31.3358499 39.4892827,30.5841797 37.6296053,31.2284684 C36.2296053,31.717467 35.3602504,32.9300515 35.3602504,34.3953953 L35.3602504,36.0474177 C35.3602504,39.8619374 34.1828311,42.8091454 31.300573,46.175967 L26.8037988,49.2635969 L25.6828311,49.2635969 L25.6828311,45.9595521 L12.7796053,45.9595521 L12.7796053,77.3479776 L25.6828311,77.3479776 L25.6828311,75.6959552 C26.7779924,75.6959552 26.9328311,75.8231609 27.216702,76.0560961 C28.0812182,76.7631617 29.0489601,77.3479776 32.134444,77.3479776 L46.2957343,77.3479776 C47.1828311,78.3540592 48.4521859,79 49.8763795,79 L53.1021859,79 C55.7699278,79 57.9408956,76.7763779 57.9408956,74.0439328 L57.9408956,72.0879383 C59.8134762,71.404001 61.166702,69.5867764 61.166702,67.4358432 L61.166702,64.4952434 C62.1489601,63.5866311 62.7796053,62.2864894 62.7796053,60.8277537 L62.7796053,60.8277537 Z" id="Fill-1" fill="#BF1920"></path>
                    <mask id="mask-2" fill="white">
                        <use xlink:href="#path-1"></use>
                    </mask>
                    <g id="Clip-4"></g>
                    <polygon id="Fill-3" fill="#BF1920" mask="url(#mask-2)" points="15.7796053 20 41.7796053 20 41.7796053 16 15.7796053 16"></polygon>
                    <polygon id="Fill-5" fill="#BF1920" mask="url(#mask-2)" points="15.7796053 27 41.7796053 27 41.7796053 23 15.7796053 23"></polygon>
                    <polygon id="Fill-6" fill="#BF1920" mask="url(#mask-2)" points="15.7796053 34 28.7796053 34 28.7796053 30 15.7796053 30"></polygon>
                    <polygon id="Fill-7" fill="#BF1920" mask="url(#mask-2)" points="4.01489938 3.34782609 45.404017 3.34782609 52.5443111 10.7364783 52.5443111 46.8695652 55.7796053 46.8695652 55.7796053 9.34880435 46.7434288 0 0.779605263 0 0.779605263 77 8.86784056 77 8.86784056 73.6521739 4.01489938 73.6521739"></polygon>
                    <polygon id="Fill-8" fill="#BF1920" mask="url(#mask-2)" points="42.7796053 5 42.7796053 12 50.7796053 12 50.7796053 9.2 45.9796053 9.2 45.9796053 5"></polygon>
                </g>
            </g>
        </g>
    </g>
</svg>