<?xml version="1.0" encoding="UTF-8"?>
<svg width="67px" height="89px" viewBox="0 0 67 89" version="1.1" xmlns="http://www.w3.org/2000/svg" xmlns:xlink="http://www.w3.org/1999/xlink">
    <title>Group 5 Copy</title>
    <g id="Page-1" stroke="none" stroke-width="1" fill="none" fill-rule="evenodd">
        <g id="Landing" transform="translate(-868, -1881)" fill="#BF1920">
            <g id="Group-2" transform="translate(732, 1818)">
                <g id="Group-5-Copy" transform="translate(137, 63)">
                    <path d="M61.9886134,71.7941176 C61.9886134,73.3866176 61.0452287,74.9905882 60.1332287,76.5391176 C59.187998,78.1430882 58.2963057,79.6572059 58.2963057,81.3529412 L34.2963057,81.3529412 L34.2963057,79.4411765 C34.2963057,77.7683824 32.7584595,75.9961765 30.0446134,73.0119118 C28.9886134,71.8495588 27.8975364,70.6489706 27.5024595,70.0142647 C26.9430749,68.9780882 23.7381518,59.7805882 21.5024595,53.1773529 C21.747998,52.9727941 22.2187672,52.7185294 22.8316903,52.6822059 C23.8249211,52.6114706 24.7516903,53.1582353 25.4532287,54.1542647 L31.491998,63.8488235 L36.1424595,59.2280882 L36.1424595,29.7352941 C36.1424595,28.68 36.9713826,27.8235294 37.9886134,27.8235294 C39.0058441,27.8235294 39.8347672,28.68 39.8347672,29.7352941 L39.8347672,54.5882353 L43.5270749,54.5882353 L43.5270749,45.0294118 L45.3732287,45.0294118 C45.9233826,45.0294118 46.7523057,45.385 47.2193826,45.7673529 L47.2193826,54.5882353 L50.9116903,54.5882353 L50.9116903,46.9411765 L52.7578441,46.9411765 C53.4870749,46.9411765 54.603998,47.7976471 54.603998,48.8529412 L54.603998,50.7647059 L54.603998,56.5 L58.2963057,56.5 L58.2963057,50.7647059 L60.1424595,50.7647059 C60.8716903,50.7647059 61.9886134,51.6211765 61.9886134,52.6764706 L61.9886134,71.7941176 Z M65.6809211,71.7941176 L65.6809211,52.6764706 C65.6809211,49.2964706 62.7621518,46.9411765 60.1424595,46.9411765 L57.9658441,46.9411765 C57.1295364,44.6164706 54.8476903,43.1176471 52.7578441,43.1176471 L49.9110749,43.1176471 C48.6815364,41.9055882 46.7910749,41.2058824 45.3732287,41.2058824 L43.5270749,41.2058824 L43.5270749,29.7352941 C43.5270749,26.5732353 41.0421518,24 37.9886134,24 C34.9350749,24 32.4501518,26.5732353 32.4501518,29.7352941 L32.4501518,57.5954412 L32.1658441,57.8802941 L28.4975364,51.9958824 C26.2673826,48.8127941 23.1806134,48.4495588 21.0483057,49.1702941 C19.0341518,49.8489706 17.6809211,51.4357353 17.6809211,53.1180882 L17.6809211,53.4430882 L17.7843057,53.7508824 C19.4901518,58.8017647 23.5461518,70.7005882 24.3732287,72.0426471 C24.9713826,73.0119118 26.0772287,74.2258824 27.3566134,75.6329412 C28.4550749,76.8411765 30.267998,78.8351471 30.603998,79.6094118 L30.603998,81.3529412 L26.9116903,81.3529412 L26.9116903,89 L30.603998,89 L30.603998,85.1764706 L61.9886134,85.1764706 L61.9886134,89 L65.6809211,89 L65.6809211,81.3529412 L61.9886134,81.3529412 C61.9886134,80.7316176 62.6772287,79.5616176 63.2864595,78.5292647 C64.3535364,76.7169118 65.6809211,74.4610294 65.6809211,71.7941176 L65.6809211,71.7941176 Z" id="Fill-1"></path>
                    <path d="M30.9397797,47.3894178 L32.6086062,43.9607409 L27.016084,41.0654564 C26.4932967,40.7930042 25.8756263,40.7949229 25.3528389,41.0616191 L12.5826885,47.6215777 L15.204067,33.736108 C15.323136,33.1067818 15.1296489,32.4582688 14.6887215,32.0054609 L4.20692847,21.2781345 L18.4338137,19.9676777 C19.0998559,19.90628 19.6840382,19.4803336 19.9612457,18.852926 L26.1807406,4.78326323 L32.4039563,18.852926 C32.6811639,19.4803336 33.2634857,19.90628 33.9295279,19.9676777 L48.1545527,21.2762158 L45.3378266,24.1580695 L47.9573446,26.8825917 L51.7694131,22.9838388 C52.627082,22.1070032 52.9042895,20.8349199 52.4949899,19.6645266 C52.0856902,18.4922146 51.0847664,17.6940447 49.8791927,17.5827614 L35.3397514,16.2454431 L28.9751412,1.85152387 C28.4690979,0.70799203 27.3993374,0 26.1807406,0 C24.9658647,0 23.8942437,0.70799203 23.3882004,1.85152387 L17.0254506,16.2454431 L2.48042795,17.5827614 C1.27671476,17.6940447 0.275790969,18.4922146 -0.133508723,19.6645266 C-0.542808415,20.8349199 -0.263740443,22.1070032 0.592068004,22.9838388 L11.3622313,34.0066416 L8.67945783,48.2259612 C8.454343,49.4193786 8.89527039,50.6147148 9.83293878,51.3495683 C10.379912,51.7793521 11.0310706,52 11.6878106,52 C12.1529238,52 12.621758,51.8906354 13.060825,51.6661501 L26.1788801,44.9258357 L30.9397797,47.3894178 Z" id="Fill-3"></path>
                </g>
            </g>
        </g>
    </g>
</svg>