<?xml version="1.0" encoding="UTF-8"?>
<svg width="75px" height="79px" viewBox="0 0 75 79" version="1.1" xmlns="http://www.w3.org/2000/svg" xmlns:xlink="http://www.w3.org/1999/xlink">
    <title>Group 8 Copy</title>
    <defs>
        <polygon id="path-1" points="0 0.482558333 73.9375826 0.482558333 73.9375826 79 0 79"></polygon>
        <polygon id="path-3" points="-0.0888157895 79 73.9111842 79 73.9111842 1 -0.0888157895 1"></polygon>
    </defs>
    <g id="Page-1" stroke="none" stroke-width="1" fill="none" fill-rule="evenodd">
        <g id="Landing" transform="translate(-500, -2266)">
            <g id="Group-6" transform="translate(369, 2186)">
                <g id="Group-8-Copy" transform="translate(132, 80)">
                    <g id="Group-3" transform="translate(-0.0888, 0)">
                        <mask id="mask-2" fill="white">
                            <use xlink:href="#path-1"></use>
                        </mask>
                        <g id="Clip-2"></g>
                        <path d="M70.1087776,49.4296417 L66.8844689,53.1722667 C66.7023323,53.2562042 65.9409689,53.1508708 65.1484289,52.4645583 L64.8711219,52.2242667 C64.0753002,51.5363083 63.8685506,50.7956833 63.8652689,50.6887042 L67.160135,46.8851833 C67.4423645,46.5560167 67.8476593,46.3601625 68.2988984,46.3321833 C68.7583419,46.3124333 69.2243489,46.4605583 69.586981,46.7749125 L69.8610063,47.0102667 C70.5961158,47.6472042 70.7060541,48.7351 70.1087776,49.4296417 L70.1087776,49.4296417 Z M59.7516089,61.3783917 L34.728348,61.3783917 C35.0515993,59.0594125 35.0614445,56.8539958 34.854695,54.7950583 L62.8167532,54.7950583 L63.0021715,54.9547042 L63.0021715,54.9547042 C63.0120167,54.9629333 63.0235028,54.9695167 63.033348,54.9777458 L63.033348,58.086725 C63.033348,59.9004333 61.561488,61.3783917 59.7516089,61.3783917 L59.7516089,61.3783917 Z M35.2583489,71.2583292 L34.5363663,71.2040167 L34.011288,71.7010583 C33.1695219,72.4992875 32.0077863,73.6628917 31.016701,74.66685 L15.8911654,59.4972042 C17.8044193,56.4392458 18.8496532,54.7358083 18.9842045,54.4444958 C19.5125645,53.3088708 19.5535863,51.6367042 19.6110167,49.3210167 C19.6766515,46.6366625 19.758695,43.293975 20.7432167,40.7297667 C21.8425993,37.8660167 22.4546437,35.8218917 23.4654193,32.44135 C24.0118289,30.6095375 24.6845854,28.3646208 25.6248037,25.3478083 C25.7248967,25.025225 26.1022967,24.8540583 26.4206254,24.8030375 C26.7914619,24.748725 27.3296671,24.8129125 27.608615,25.202975 C28.9935089,27.14835 29.6071941,29.0723292 29.4332619,30.9222458 C28.9836637,35.7149125 28.4290497,38.4897875 27.1524532,42.3393917 L26.8735054,43.1837042 L27.4231967,43.8815375 C29.9468541,47.0777458 33.797975,55.7693917 30.3078454,65.7727667 L33.4041663,66.8590167 C33.6617828,66.1216833 33.8767367,65.3925792 34.0687184,64.6700583 L51.5078802,64.6700583 C48.9973497,67.6605375 44.125608,71.9002042 35.2583489,71.2583292 L35.2583489,71.2583292 Z M31.8568263,3.774225 L59.7516089,3.774225 C61.561488,3.774225 63.033348,5.2505375 63.033348,7.06589167 L63.033348,8.711725 L28.5750871,8.711725 L28.5750871,7.06424583 C28.5750871,5.24889167 30.0469471,3.774225 31.8568263,3.774225 L31.8568263,3.774225 Z M68.2119323,15.2901208 C68.7681871,15.2901208 69.3424915,15.5238292 69.7740402,15.9813708 L70.0497063,16.2726833 C70.8438871,17.1087667 70.8635776,18.3859333 70.1022141,19.1133917 L66.216635,22.7951208 C66.0049628,22.8642458 65.1106889,22.6864958 64.2443097,21.7714125 L63.9702845,21.4817458 C63.1022645,20.5650167 62.9627906,19.6581625 63.0120167,19.5001625 L66.9435402,15.7871625 C67.2930454,15.4530583 67.7475663,15.2901208 68.2119323,15.2901208 L68.2119323,15.2901208 Z M65.171401,32.0315375 L64.8891715,31.7863083 C64.0638141,31.0720167 63.8554237,30.30835 63.863628,30.1849125 L67.2159245,26.3155583 C67.5047176,25.9798083 67.914935,25.7773708 68.3710967,25.7428083 C68.8600758,25.7033083 69.3441323,25.8695375 69.7248141,26.1987042 L70.0054028,26.4389958 C70.7651254,27.098975 70.8767045,28.2214333 70.2597376,28.9406625 L66.9697941,32.75735 C66.7810941,32.83635 66.0000402,32.7458292 65.171401,32.0315375 L65.171401,32.0315375 Z M65.171401,42.1172042 L64.8908123,41.871975 C64.0638141,41.1593292 63.8570645,40.3940167 63.863628,40.2705792 L67.2175654,36.401225 C67.839455,35.68035 68.9650915,35.6276833 69.7198915,36.2794333 L70.0054028,36.5279542 C70.3778802,36.8488917 70.605961,37.2932667 70.6486237,37.7771417 C70.6896454,38.2445583 70.5501715,38.6905792 70.2597376,39.0263292 L66.9697941,42.8446625 C66.7843758,42.9203708 65.9967584,42.8282042 65.171401,42.1172042 L65.171401,42.1172042 Z M61.3842741,48.5326625 C60.6967497,49.3325375 60.4982045,50.4023292 60.7279263,51.5033917 L34.326335,51.5033917 C33.4747237,47.6899958 31.9519967,44.5843083 30.5326445,42.5599333 C31.7124297,38.850225 32.2555576,35.9634333 32.7002332,31.2300167 C32.9496454,28.5687042 32.1357741,25.8975167 30.2799506,23.2905167 C29.8434793,22.6766208 29.2462028,22.2273083 28.5750871,21.9195375 L28.5750871,12.0033917 L63.033348,12.0033917 L63.033348,14.9609542 L60.7574619,17.1104125 C59.1510506,18.6410375 59.5169645,21.5558083 61.5893828,23.7480583 L61.8650489,24.037725 C62.4180219,24.6219958 63.0317071,25.0614333 63.6601602,25.400475 L61.3826332,28.0288708 C59.9813306,29.6582458 60.5786071,32.4034958 62.7429141,34.2764542 L63.0284254,34.5233292 C63.3172184,34.7734958 63.6174976,34.9923917 63.9243402,35.1816625 L61.3826332,38.1161833 C59.9813306,39.7472042 60.5818889,42.4924542 62.7478367,44.3654125 L63.0284254,44.60735 L63.0284254,44.6089958 C63.373008,44.9068917 63.7438445,45.1521208 64.1245263,45.3693708 L61.3842741,48.5326625 Z M72.1467376,23.9472042 L71.8677897,23.7052667 C71.5330523,23.4156 71.160575,23.1917667 70.7749706,22.9992042 L72.3567689,21.5031417 C74.4357506,19.5215583 74.468568,16.157475 72.430608,14.0063708 L72.1549419,13.7150583 C70.5895523,12.05935 68.254595,11.6034542 66.3134463,12.3704125 L66.3134463,7.06589167 C66.3134463,3.43518333 63.3697263,0.482558333 59.7516089,0.482558333 L31.8568263,0.482558333 C28.237068,0.482558333 25.293348,3.43518333 25.293348,7.06424583 L25.293348,21.7335583 C23.947835,22.141725 22.891115,23.0880792 22.4907428,24.3652458 C21.5472428,27.3968708 20.8728454,29.6549542 20.3215132,31.4966417 C19.2992515,34.9150375 18.7347923,36.7978708 17.6813541,39.5464125 C16.4933645,42.6438708 16.4031167,46.3009125 16.3292776,49.2403708 C16.2931784,50.7101 16.248875,52.5419125 16.0306393,53.010975 C15.8796793,53.29735 14.7556837,55.11435 13.5119045,57.1091 L10.523881,54.1136833 L-0.000656347826,64.6700583 L14.286395,79.0003292 L16.6082254,76.6731208 L4.64136365,64.6700583 L10.523881,58.7681 L30.6950906,79.0003292 L31.0478776,78.646475 L31.3924602,78.982225 C31.420355,78.9526 34.0145697,76.2748292 35.7538915,74.5845583 C48.0833854,75.18035 53.7148497,67.3511208 55.5887228,64.7474125 C55.6100541,64.7177875 55.6248219,64.6980375 55.6445123,64.6700583 L59.7516089,64.6700583 C63.3697263,64.6700583 66.3134463,61.7174333 66.3134463,58.086725 L66.3134463,56.4507667 C66.4529202,56.4639333 66.594035,56.4820375 66.7285863,56.4820375 C67.7688976,56.4820375 68.681221,56.0985583 69.2932654,55.3859125 L72.5897723,51.5856833 C74.3733976,49.5102875 74.1092176,46.3404125 72.002341,44.518475 L71.7299567,44.281475 C71.4017828,43.9983917 71.0358689,43.77785 70.656828,43.5869333 L72.7407323,41.180725 C73.6185976,40.1619542 74.0370193,38.850225 73.9172358,37.4891208 C73.7990932,36.1461208 73.1706402,34.919975 72.153301,34.0378083 L71.8677897,33.7892875 C71.5789967,33.5407667 71.2705132,33.3366833 70.9505437,33.162225 L72.7407323,31.0950583 C74.544048,28.9966208 74.2782271,25.7905375 72.1467376,23.9472042 L72.1467376,23.9472042 Z" id="Fill-1" fill="#BF1920" mask="url(#mask-2)"></path>
                    </g>
                    <mask id="mask-4" fill="white">
                        <use xlink:href="#path-3"></use>
                    </mask>
                    <g id="Clip-5"></g>
                    <polygon id="Fill-4" fill="#BF1920" mask="url(#mask-4)" points="42.9111842 60 48.9111842 60 48.9111842 57 42.9111842 57"></polygon>
                    <polygon id="Fill-6" fill="#BF1920" mask="url(#mask-4)" points="10.568185 67 12.9111842 65.2427506 11.2541834 64 8.91118421 65.7572494"></polygon>
                    <path d="M51.6315607,31.8134795 C51.3855375,32.147907 51.2691752,32.5642352 51.3040839,32.983976 L51.6232491,36.8128304 L47.9096287,35.6116211 C47.5788272,35.5058328 47.223091,35.5058328 46.8906272,35.6167399 L43.1969546,36.8657245 L43.5177821,32.9600883 C43.5526908,32.5420538 43.4346662,32.1257256 43.188643,31.7878855 L40.5272704,28.165489 L44.2774619,27.4727462 C44.7595344,27.3823142 45.180101,27.0785994 45.4244619,26.641796 L47.410933,23.0774124 L49.3974041,26.641796 C49.641765,27.0785994 50.0623316,27.3823142 50.5444041,27.4727462 L54.2995825,28.1671952 L51.6315607,31.8134795 Z M57.544429,25.3006732 L51.8975317,24.254734 L48.8538258,18.794692 C48.2620403,17.7351027 46.5598257,17.7351027 45.9680402,18.794692 L42.9243343,24.254734 L37.277437,25.3006732 C36.7105863,25.4047553 36.2351631,25.8057271 36.0257109,26.3585564 C35.8145964,26.9096793 35.8993746,27.5341716 36.2467993,28.0085128 L40.1515864,33.3235223 L39.6745009,39.1504108 C39.6279559,39.7220089 39.8623429,40.2782507 40.3011951,40.6331534 C40.5970878,40.8737365 40.962798,41 41.3301705,41 C41.504714,41 41.6809198,40.9709935 41.8504763,40.9146868 L47.4225692,39.0309724 L52.9913375,40.8327862 C53.5182926,41 54.0951173,40.8925054 54.5306448,40.5358964 C54.9628477,40.1809937 55.1955724,39.6264582 55.1473651,39.0599789 L54.6702796,33.3422912 L58.576729,28.0051002 C58.9241537,27.5307591 59.0072696,26.9079731 58.7961551,26.3568501 C58.5850406,25.8057271 58.1112797,25.4047553 57.544429,25.3006732 L57.544429,25.3006732 Z" id="Fill-7" fill="#BF1920" mask="url(#mask-4)"></path>
                </g>
            </g>
        </g>
    </g>
</svg>