<?xml version="1.0" encoding="UTF-8"?>
<svg width="92px" height="79px" viewBox="0 0 92 79" version="1.1" xmlns="http://www.w3.org/2000/svg" xmlns:xlink="http://www.w3.org/1999/xlink">
    <title>Group 10 Copy</title>
    <defs>
        <polygon id="path-1" points="0 79 91 79 91 0 0 0"></polygon>
    </defs>
    <g id="Page-1" stroke="none" stroke-width="1" fill="none" fill-rule="evenodd">
        <g id="Landing" transform="translate(-495, -1886)">
            <g id="Group-4" transform="translate(371, 1818)">
                <g id="Group-10-Copy" transform="translate(124.1678, 68)">
                    <path d="M87.2083333,67.7058824 L87.2083333,69.5882353 C87.2083333,72.7016471 84.6565417,75.2352941 81.5208333,75.2352941 L9.47916667,75.2352941 C6.34345833,75.2352941 3.79166667,72.7016471 3.79166667,69.5882353 L3.79166667,67.7058824 L5.6875,67.7058824 L85.3125,67.7058824 L87.2083333,67.7058824 Z M85.3125,39.4705882 L81.5208333,39.4705882 L81.5208333,63.9411765 L9.47916667,63.9411765 L9.47916667,20.6470588 C9.47916667,19.6098824 10.3303958,18.7647059 11.375,18.7647059 L28.4375,18.7647059 L28.4375,15 L11.375,15 C8.23929167,15 5.6875,17.5336471 5.6875,20.6470588 L5.6875,63.9411765 L0,63.9411765 L0,69.5882353 C0,74.7778824 4.25235417,79 9.47916667,79 L81.5208333,79 C86.7476458,79 91,74.7778824 91,69.5882353 L91,63.9411765 L85.3125,63.9411765 L85.3125,39.4705882 Z" id="Fill-1" fill="#BF1920"></path>
                    <mask id="mask-2" fill="white">
                        <use xlink:href="#path-1"></use>
                    </mask>
                    <g id="Clip-4"></g>
                    <polygon id="Fill-3" fill="#BF1920" mask="url(#mask-2)" points="43 73 52 73 52 70 43 70"></polygon>
                    <path d="M83.5,0 L38.5,0 C34.36375,0 31,3.31656215 31,7.3947874 L31,24.033059 L34.75,24.033059 L34.75,7.3947874 C34.75,5.35567477 36.431875,3.6973937 38.5,3.6973937 L83.5,3.6973937 C85.568125,3.6973937 87.25,5.35567477 87.25,7.3947874 L87.25,29.5791496 C87.25,31.6182622 85.568125,33.2765433 83.5,33.2765433 L67.72375,33.2765433 L53.5,47.3007576 L53.5,33.2765433 L44.125,33.2765433 L44.125,36.973937 L49.75,36.973937 L49.75,47.3007576 C49.75,48.8000507 50.659375,50.1422047 52.065625,50.7171494 C52.530625,50.9075652 53.02,51 53.50375,51 C54.476875,51 55.433125,50.6247145 56.15125,49.9148149 L69.27625,36.973937 L83.5,36.973937 C87.63625,36.973937 91,33.6573749 91,29.5791496 L91,7.3947874 C91,3.31656215 87.63625,0 83.5,0" id="Fill-5" fill="#BF1920" mask="url(#mask-2)"></path>
                    <path d="M50,62 L50,59.0137143 C50,52.0122857 36.7175,49 32.5,49 C28.2825,49 15,52.0122857 15,59.0137143 L15,62 L18.8888889,62 L18.8888889,59.0137143 C18.8888889,55.6931429 28.1327778,52.7142857 32.5,52.7142857 C36.8672222,52.7142857 46.1111111,55.6931429 46.1111111,59.0137143 L46.1111111,62 L50,62 Z" id="Fill-6" fill="#BF1920" mask="url(#mask-2)"></path>
                    <path d="M37.4,38.4932303 C37.4,41.6303498 34.9772,44.1835529 32,44.1835529 C29.0228,44.1835529 26.6,41.6303498 26.6,38.4932303 L26.6,36.5067697 C26.6,33.3677419 29.0228,30.8164471 32,30.8164471 C34.9772,30.8164471 37.4,33.3677419 37.4,36.5067697 L37.4,38.4932303 Z M32,27 C27.0374,27 23,31.2648796 23,36.5067697 L23,38.4932303 C23,43.7351204 27.0374,48 32,48 C36.9626,48 41,43.7351204 41,38.4932303 L41,36.5067697 C41,31.2648796 36.9626,27 32,27 L32,27 Z" id="Fill-7" fill="#BF1920" mask="url(#mask-2)"></path>
                    <polygon id="Fill-8" fill="#BF1920" mask="url(#mask-2)" points="46 16 76 16 76 13 46 13"></polygon>
                    <polygon id="Fill-9" fill="#BF1920" mask="url(#mask-2)" points="45 25 62 25 62 22 45 22"></polygon>
                </g>
            </g>
        </g>
    </g>
</svg>