<?xml version="1.0" encoding="UTF-8"?>
<svg width="35px" height="35px" viewBox="0 0 35 35" version="1.1" xmlns="http://www.w3.org/2000/svg" xmlns:xlink="http://www.w3.org/1999/xlink">
    <title>Fill 9</title>
    <g id="Page-1" stroke="none" stroke-width="1" fill="none" fill-rule="evenodd">
        <g id="Landing" transform="translate(-728, -6869)" fill="#FFFFFF">
            <g id="Group-9" transform="translate(634.5642, 6522)">
                <g id="Redes-sociales" transform="translate(53, 347.1168)">
                    <g id="Group-11" transform="translate(40, 0)">
                        <path d="M26.6914468,5.49272323 C25.6210191,5.49272323 24.7547771,6.40025421 24.7547771,7.52170321 C24.7547771,8.64315221 25.6210191,9.55068319 26.6914468,9.55068319 C27.7618744,9.55068319 28.6281165,8.64315221 28.6281165,7.52170321 C28.6281165,6.40025421 27.7618744,5.49272323 26.6914468,5.49272323 L26.6914468,5.49272323 Z M17.5010312,9.66304417 C13.6380042,9.66304417 10.4968456,12.9539244 10.4968456,17.0010804 C10.4968456,21.0460756 13.6380042,24.3369558 17.5010312,24.3369558 C21.3619958,24.3369558 24.5031544,21.0460756 24.5031544,17.0010804 C24.5031544,12.9539244 21.3619958,9.66304417 17.5010312,9.66304417 L17.5010312,9.66304417 Z M17.5010312,26.7786463 C12.3530786,26.7786463 8.16624204,22.3922466 8.16624204,17.0010804 C8.16624204,11.6077534 12.3530786,7.22135367 17.5010312,7.22135367 C22.6469214,7.22135367 26.833758,11.6077534 26.833758,17.0010804 C26.833758,22.3922466 22.6469214,26.7786463 17.5010312,26.7786463 L17.5010312,26.7786463 Z M10.9856536,2.4416905 C6.48944495,2.4416905 2.83060358,6.2749285 2.83060358,10.9854465 L2.83060358,23.0123928 C2.83060358,27.7250715 6.48944495,31.5583095 10.9856536,31.5583095 L24.0143464,31.5583095 C28.5105551,31.5583095 32.1693964,27.7250715 32.1693964,23.0123928 L32.1693964,10.9854465 C32.1693964,6.2749285 28.5105551,2.4416905 24.0143464,2.4416905 L10.9856536,2.4416905 Z M24.0143464,34 L10.9856536,34 C5.20451926,34 0.5,29.0712425 0.5,23.0123928 L0.5,10.9854465 C0.5,4.92875755 5.20451926,0 10.9856536,0 L24.0143464,0 C29.7954807,0 34.5,4.92875755 34.5,10.9854465 L34.5,23.0123928 C34.5,29.0712425 29.7954807,34 24.0143464,34 L24.0143464,34 Z" id="Fill-9"></path>
                    </g>
                </g>
            </g>
        </g>
    </g>
</svg>