<?xml version="1.0" encoding="UTF-8"?>
<svg width="291px" height="76px" viewBox="0 0 291 76" version="1.1" xmlns="http://www.w3.org/2000/svg" xmlns:xlink="http://www.w3.org/1999/xlink">
    <title>Logo</title>
    <defs>
        <polygon id="path-1" points="0 76 290.969707 76 290.969707 0.141927711 0 0.141927711"></polygon>
    </defs>
    <g id="Page-1" stroke="none" stroke-width="1" fill="none" fill-rule="evenodd">
        <g id="Landing" transform="translate(-102, -25)">
            <g id="Logo" transform="translate(102, 24.7354)">
                <polygon id="Fill-1" fill="#FFFFFF" points="128.676262 17.2645985 132.613661 17.2645985 137.536293 32.6087433 142.503187 17.2645985 146.438815 17.2645985 150 39.2645985 146.091814 39.2645985 143.815063 25.3714064 139.304051 39.2645985 135.74198 39.2645985 131.271688 25.3714064 128.940054 39.2645985 125 39.2645985"></polygon>
                <g id="Group-40" transform="translate(0, 0.2646)">
                    <path d="M163.758185,20.5525976 C161.720267,20.5525976 160.006396,21.2585735 158.618409,22.6723566 C157.229503,24.0861398 156.535509,25.8826699 156.535509,28.0628627 C156.535509,30.4912 157.409427,32.4131759 159.158181,33.8260434 C160.515875,34.9312482 162.074607,35.4843084 163.833459,35.4843084 C165.820888,35.4843084 167.513645,34.7664289 168.912648,33.3334169 C170.311651,31.9004048 171.010235,30.1331759 171.010235,28.0326458 C171.010235,25.9431036 170.306144,24.1731277 168.897961,22.7245494 C167.48886,21.2768867 165.775907,20.5525976 163.758185,20.5525976 M163.803166,16.4614169 C166.917875,16.4614169 169.596544,17.5867663 171.839172,19.8356337 C174.080882,22.0854169 175.201737,24.8278265 175.201737,28.0628627 C175.201737,31.2676819 174.095569,33.9807904 171.884153,36.2003566 C169.671819,38.4208386 166.98856,39.5306217 163.833459,39.5306217 C160.526891,39.5306217 157.78121,38.389706 155.594579,36.1106217 C153.407948,33.8315373 152.314632,31.1239229 152.314632,27.9877783 C152.314632,25.8881639 152.823194,23.9570313 153.842153,22.1952964 C154.861112,20.4326458 156.261033,19.0371759 158.043752,18.0070554 C159.825554,16.9769349 161.74597,16.4614169 163.803166,16.4614169" id="Fill-2" fill="#FFFFFF"></path>
                    <polygon id="Fill-4" fill="#FFFFFF" points="177.589773 17.0133783 182.089716 17.0133783 186.196763 24.9146313 190.286369 17.0133783 194.729397 17.0133783 188.28517 29.4663904 188.28517 38.9773783 184.063375 38.9773783 184.063375 29.4663904"></polygon>
                    <path d="M207.034199,22.837359 L204.079218,30.3769253 L209.970821,30.3769253 L207.034199,22.837359 Z M204.882451,17.0137446 L209.132704,17.0137446 L217.601997,38.9777446 L213.246177,38.9777446 L211.523126,34.4543711 L202.538846,34.4543711 L200.746947,38.9777446 L196.391126,38.9777446 L204.882451,17.0137446 Z" id="Fill-6" fill="#FFFFFF"></path>
                    <path d="M225.019101,21.0453157 L225.019101,34.9011229 L226.965221,34.9011229 C228.881047,34.9011229 230.27087,34.6831952 231.133773,34.2436771 C231.997593,33.8059904 232.702602,33.0679663 233.252473,32.0314361 C233.800508,30.994906 234.074984,29.7203036 234.074984,28.2048819 C234.074984,25.8726892 233.421381,24.0651711 232.114176,22.7795807 C230.936407,21.6230988 229.046284,21.0453157 226.441053,21.0453157 L225.019101,21.0453157 Z M220.857892,17.013653 L225.823252,17.013653 C229.023334,17.013653 231.401823,17.4092193 232.956883,18.2012675 C234.512861,18.9924 235.793444,20.278906 236.80047,22.0598699 C237.808413,23.8426651 238.311467,25.9230506 238.311467,28.3019422 C238.311467,29.9940867 238.029646,31.5497976 237.466924,32.968159 C236.902366,34.3856048 236.125754,35.563147 235.133416,36.4989542 C234.141079,37.4347614 233.067041,38.0812193 231.910385,38.440159 C230.753728,38.7990988 228.748858,38.977653 225.897609,38.977653 L220.857892,38.977653 L220.857892,17.013653 Z" id="Fill-8" fill="#FFFFFF"></path>
                    <path d="M252.659878,20.5525976 C250.621042,20.5525976 248.908089,21.2585735 247.519184,22.6723566 C246.131197,24.0861398 245.437203,25.8826699 245.437203,28.0628627 C245.437203,30.4912 246.311121,32.4131759 248.058957,33.8260434 C249.418487,34.9312482 250.976301,35.4843084 252.734234,35.4843084 C254.722581,35.4843084 256.415338,34.7664289 257.814342,33.3334169 C259.213345,31.9004048 259.911928,30.1331759 259.911928,28.0326458 C259.911928,25.9431036 259.207837,24.1731277 257.799654,22.7245494 C256.390553,21.2768867 254.6776,20.5525976 252.659878,20.5525976 M252.704859,16.4614169 C255.819569,16.4614169 258.498238,17.5867663 260.740865,19.8356337 C262.982575,22.0854169 264.10343,24.8278265 264.10343,28.0628627 C264.10343,31.2676819 262.997263,33.9807904 260.785846,36.2003566 C258.573512,38.4208386 255.890253,39.5306217 252.734234,39.5306217 C249.428585,39.5306217 246.682903,38.389706 244.495354,36.1106217 C242.309641,33.8315373 241.215408,31.1239229 241.215408,27.9877783 C241.215408,25.8881639 241.724887,23.9570313 242.743846,22.1952964 C243.762805,20.4326458 245.162726,19.0371759 246.944528,18.0070554 C248.727247,16.9769349 250.647663,16.4614169 252.704859,16.4614169" id="Fill-10" fill="#FFFFFF"></path>
                    <path d="M128.369739,52.9898554 L127.185543,56.0115422 L129.546591,56.0115422 L128.369739,52.9898554 Z M127.507755,50.6558313 L129.211527,50.6558313 L132.605303,59.4580964 L130.859303,59.4580964 L130.168982,57.6450843 L126.567742,57.6450843 L125.849881,59.4580964 L124.104799,59.4580964 L127.507755,50.6558313 Z" id="Fill-12" fill="#FFFFFF"></path>
                    <path d="M133.718539,52.9478265 L135.374577,52.9478265 L135.374577,56.0830554 C135.374577,56.6938024 135.416804,57.1177542 135.50034,57.3549108 C135.584795,57.5920675 135.719738,57.7761157 135.906088,57.9088867 C136.092438,58.0407422 136.321933,58.1066699 136.595492,58.1066699 C136.868132,58.1066699 137.099463,58.0407422 137.289485,57.9116337 C137.480426,57.7816096 137.621795,57.5911518 137.713593,57.3402602 C137.781523,57.1525494 137.816407,56.7514892 137.816407,56.1370795 L137.816407,52.9478265 L139.454085,52.9478265 L139.454085,55.7067181 C139.454085,56.8430554 139.364123,57.6213687 139.184198,58.0407422 C138.963883,58.5507663 138.639836,58.9426699 138.212056,59.216453 C137.784277,59.4902361 137.239915,59.6257542 136.579886,59.6257542 C135.863861,59.6257542 135.285533,59.4664289 134.843066,59.1477783 C134.401517,58.828212 134.090321,58.3841157 133.910397,57.8127422 C133.78188,57.4180916 133.718539,56.700212 133.718539,55.658188 L133.718539,52.9478265 Z" id="Fill-14" fill="#FFFFFF"></path>
                    <path d="M144.193713,54.2881735 C143.686987,54.2881735 143.266552,54.4667277 142.931489,54.8238361 C142.597344,55.1809446 142.430271,55.6387759 142.430271,56.1973301 C142.430271,56.759547 142.600098,57.2219566 142.940669,57.5854747 C143.28124,57.9480771 143.700757,58.1293783 144.199221,58.1293783 C144.71329,58.1293783 145.140151,57.9517398 145.478886,57.5937157 C145.818539,57.2375229 145.987448,56.7696193 145.987448,56.1909205 C145.987448,55.6241253 145.818539,55.1653783 145.478886,54.8146795 C145.140151,54.4630651 144.711454,54.2881735 144.193713,54.2881735 L144.193713,54.2881735 Z M145.914927,50.4341494 L147.553524,50.4341494 L147.553524,59.4580048 L145.914927,59.4580048 L145.914927,58.7703422 C145.59547,59.0734265 145.275095,59.2922699 144.953801,59.425041 C144.632508,59.5596434 144.283675,59.6255711 143.907303,59.6255711 C143.065514,59.6255711 142.335719,59.3005108 141.720672,58.6476434 C141.105625,57.9956916 140.798101,57.1844145 140.798101,56.2147277 C140.798101,55.2093301 141.095527,54.3852337 141.690379,53.7433542 C142.286148,53.100559 143.008599,52.7800771 143.860486,52.7800771 C144.251546,52.7800771 144.618738,52.8542458 144.962063,53.0016675 C145.306306,53.1490892 145.623927,53.3706795 145.914927,53.6655229 L145.914927,50.4341494 Z" id="Fill-16" fill="#FFFFFF"></path>
                    <mask id="mask-2" fill="white">
                        <use xlink:href="#path-1"></use>
                    </mask>
                    <g id="Clip-19"></g>
                    <path d="M149.029637,59.4585542 L150.667315,59.4585542 L150.667315,52.9481928 L149.029637,52.9481928 L149.029637,59.4585542 Z M149.848476,50.2671325 C150.134886,50.2671325 150.381823,50.3706024 150.586533,50.5784578 C150.792161,50.7853976 150.894975,51.0372048 150.894975,51.3320482 C150.894975,51.6223133 150.793079,51.8713735 150.589287,52.0764819 C150.386413,52.282506 150.143148,52.3850602 149.859492,52.3850602 C149.568492,52.3850602 149.320637,52.279759 149.115009,52.070988 C148.909382,51.8613012 148.806568,51.6076627 148.806568,51.308241 C148.806568,51.0207229 148.908464,50.7753253 149.112256,50.5720482 C149.316047,50.3678554 149.561148,50.2671325 149.848476,50.2671325 L149.848476,50.2671325 Z" id="Fill-18" fill="#FFFFFF" mask="url(#mask-2)"></path>
                    <polygon id="Fill-20" fill="#FFFFFF" mask="url(#mask-2)" points="152.352912 50.5477831 153.990591 50.5477831 153.990591 52.9477349 154.962732 52.9477349 154.962732 54.3532771 153.990591 54.3532771 153.990591 59.4580964 152.352912 59.4580964 152.352912 54.3532771 151.51296 54.3532771 151.51296 52.9477349 152.352912 52.9477349"></polygon>
                    <path d="M158.931165,54.3176578 C158.422603,54.3176578 157.998496,54.4943807 157.659761,54.8478265 C157.321944,55.2003566 157.152117,55.652694 157.152117,56.2030072 C157.152117,56.7698024 157.31919,57.2285494 157.654253,57.5801639 C157.988398,57.929947 158.412505,58.1066699 158.925657,58.1066699 C159.43789,58.1066699 159.864751,57.9281157 160.205322,57.5737542 C160.545893,57.2184771 160.71572,56.7615614 160.71572,56.2030072 C160.71572,55.644453 160.548647,55.1902843 160.213584,54.8414169 C159.879439,54.4916337 159.45166,54.3176578 158.931165,54.3176578 M158.904543,52.7793446 C159.520509,52.7793446 160.098837,52.9331759 160.641363,53.2408386 C161.182972,53.5475855 161.606162,53.964212 161.910013,54.4907181 C162.213865,55.0181398 162.36625,55.5867663 162.36625,56.1975133 C162.36625,56.8119229 162.212947,57.3860434 161.907259,57.9207904 C161.600654,58.4555373 161.18389,58.8730795 160.656051,59.1743325 C160.128212,59.4755855 159.546212,59.6257542 158.910051,59.6257542 C157.974628,59.6257542 157.175067,59.2942843 156.513203,58.6295133 C155.851338,57.9647422 155.520865,57.158959 155.520865,56.2085012 C155.520865,55.1912 155.894483,54.3432964 156.642638,53.665706 C157.298076,53.0760193 158.051739,52.7793446 158.904543,52.7793446" id="Fill-21" fill="#FFFFFF" mask="url(#mask-2)"></path>
                    <path d="M163.319849,52.9478265 L164.72436,52.9478265 L164.72436,53.7682602 C164.875826,53.4441157 165.077782,53.1987181 165.329309,53.0311518 C165.581754,52.8635855 165.858066,52.7793446 166.157328,52.7793446 C166.369382,52.7793446 166.591533,52.8361157 166.823782,52.9478265 L166.313385,54.3533687 C166.121527,54.2581398 165.963634,54.2105253 165.839707,54.2105253 C165.58818,54.2105253 165.375208,54.366188 165.200792,54.6775133 C165.026375,54.9888386 164.940085,55.5986699 164.940085,56.5088386 L164.945593,56.8247422 L164.945593,59.458188 L163.319849,59.458188 L163.319849,52.9478265 Z" id="Fill-22" fill="#FFFFFF" mask="url(#mask-2)"></path>
                    <path d="M172.534634,55.3889831 C172.426313,55.0263807 172.213341,54.7306217 171.894802,54.5035373 C171.576262,54.2755373 171.206316,54.1619952 170.78588,54.1619952 C170.329644,54.1619952 169.928486,54.290188 169.584243,54.5456578 C169.3676,54.7049831 169.16748,54.9870072 168.982966,55.3889831 L172.534634,55.3889831 Z M174.172313,56.6754892 L168.911363,56.6754892 C168.986638,57.1388145 169.189511,57.5069108 169.519985,57.7797783 C169.850458,58.0526458 170.270893,58.1899952 170.783126,58.1899952 C171.394502,58.1899952 171.921423,57.9766458 172.361136,57.5490313 L173.740862,58.1954892 C173.396619,58.6826217 172.984445,59.0424771 172.505259,59.2759711 C172.025155,59.5094651 171.455089,59.6257542 170.79506,59.6257542 C169.770593,59.6257542 168.937067,59.303441 168.292644,58.6597301 C167.649139,58.0151036 167.326928,57.2084048 167.326928,56.2387181 C167.326928,55.2461398 167.648221,54.420212 168.28989,53.7645976 C168.932477,53.1080675 169.737546,52.7793446 170.705098,52.7793446 C171.732319,52.7793446 172.5686,53.1080675 173.213022,53.7645976 C173.856527,54.420212 174.178738,55.2873446 174.178738,56.3641639 L174.172313,56.6754892 Z" id="Fill-23" fill="#FFFFFF" mask="url(#mask-2)"></path>
                    <path d="M179.494308,53.8571711 L178.480857,54.8680627 C178.068683,54.4615084 177.695065,54.2573157 177.358166,54.2573157 C177.17457,54.2573157 177.030447,54.2966892 176.926715,54.3745205 C176.822983,54.4523518 176.770658,54.549412 176.770658,54.6647855 C176.770658,54.7536048 176.803705,54.8332675 176.8698,54.9065205 C176.935895,54.9816048 177.098377,55.0823277 177.358166,55.2096048 L177.958526,55.5090265 C178.591015,55.8203518 179.024302,56.1371711 179.260223,56.4604 C179.496144,56.7836289 179.614563,57.1617976 179.614563,57.597653 C179.614563,58.1763518 179.401592,58.658906 178.975649,59.0453157 C178.549705,59.432641 177.978721,59.6258458 177.262696,59.6258458 C176.31075,59.6258458 175.550661,59.2550024 174.982431,58.5133157 L175.991292,57.4181831 C176.18315,57.6416048 176.408056,57.8219904 176.66509,57.9593398 C176.923961,58.0966892 177.152538,58.1653639 177.352658,58.1653639 C177.568384,58.1653639 177.7428,58.1140867 177.874071,58.0097012 C178.006261,57.9062313 178.072355,57.7871952 178.072355,57.6516771 C178.072355,57.3998699 177.834598,57.1544723 177.358166,56.9154843 L176.806459,56.6398699 C175.750781,56.1097012 175.222942,55.4449301 175.222942,54.6464723 C175.222942,54.1327855 175.421226,53.6923518 175.81963,53.3279181 C176.218033,52.961653 176.726595,52.7794361 177.34715,52.7794361 C177.770339,52.7794361 178.169661,52.8728337 178.543279,53.0577976 C178.917816,53.2436771 179.234519,53.5101349 179.494308,53.8571711" id="Fill-24" fill="#FFFFFF" mask="url(#mask-2)"></path>
                    <path d="M186.861932,54.0601735 C187.305317,53.6820048 187.527468,53.3468723 187.527468,53.0547759 C187.527468,52.9036916 187.477897,52.7800771 187.377838,52.6839325 C187.277778,52.5887036 187.145588,52.5410892 186.98127,52.5410892 C186.829803,52.5410892 186.700368,52.5941976 186.5948,52.7022458 C186.489232,52.810294 186.435989,52.9348241 186.435989,53.0794988 C186.435989,53.3661012 186.577358,53.6939084 186.861932,54.0601735 M187.861614,57.6962699 C187.552254,57.3931855 187.117131,56.8914024 186.556244,56.1909205 C185.963229,56.6817157 185.667639,57.1102458 185.667639,57.4774265 C185.667639,57.6495711 185.749339,57.8070651 185.910904,57.9508241 C186.072468,58.0936675 186.277178,58.1650892 186.525033,58.1650892 C186.88121,58.1650892 187.326431,58.0085108 187.861614,57.6962699 M190.05467,55.999547 L191.05527,57.142294 L190.600869,57.5543422 L190.151058,57.961812 L191.568421,59.4589205 L189.532339,59.4589205 L188.949421,58.8600771 C188.02226,59.4067277 187.160276,59.6805108 186.364386,59.6805108 C185.687834,59.6805108 185.140718,59.4827277 184.723036,59.0871614 C184.304437,58.6925108 184.096055,58.1861494 184.096055,57.5671614 C184.096055,57.1001735 184.214475,56.6597398 184.451314,56.2449446 C184.688153,55.8301494 185.093901,55.4016193 185.667639,54.9575229 C185.100326,54.1956916 184.815752,53.5217639 184.815752,52.9348241 C184.815752,52.5008 185.003938,52.0713542 185.380311,51.6483181 C185.755765,51.2261976 186.286358,51.0146795 186.970254,51.0146795 C187.661494,51.0146795 188.193005,51.2234506 188.562951,51.6428241 C188.932897,52.0612819 189.117412,52.4843181 189.117412,52.9119325 C189.117412,53.2461494 189.032957,53.5684627 188.863131,53.8752096 C188.692386,54.1828723 188.301326,54.637041 187.689951,55.239547 C188.405976,56.081041 188.868639,56.6057157 189.076103,56.8135711 C189.20462,56.7174265 189.530503,56.4463904 190.05467,55.999547" id="Fill-25" fill="#FFFFFF" mask="url(#mask-2)"></path>
                    <path d="M204.427684,52.2029349 L203.253586,53.3200434 C202.454024,52.4776337 201.554403,52.0564289 200.555639,52.0564289 C199.712015,52.0564289 199.002415,52.3430313 198.425005,52.9180675 C197.847595,53.4931036 197.559349,54.2027422 197.559349,55.0451518 C197.559349,55.6320916 197.686031,56.1531036 197.943065,56.6091036 C198.198264,57.064188 198.559031,57.4212964 199.027201,57.6804289 C199.494453,57.9404771 200.014031,58.0695855 200.585015,58.0695855 C201.073381,58.0695855 201.518602,57.9798506 201.922513,57.7976337 C202.326425,57.6154169 202.768892,57.2857783 203.253586,56.8059711 L204.391882,57.9917542 C203.740116,58.6263084 203.12415,59.0658265 202.543986,59.3121398 C201.963822,59.5566217 201.302876,59.6802361 200.558393,59.6802361 C199.186012,59.6802361 198.063321,59.2452964 197.189403,58.3781639 C196.315485,57.5110313 195.878526,56.3985012 195.878526,55.0424048 C195.878526,54.1652 196.077728,53.3841398 196.476132,52.7019711 C196.873617,52.0198024 197.443684,51.4713205 198.185412,51.0565253 C198.928059,50.6417301 199.726703,50.4338747 200.583179,50.4338747 C201.31022,50.4338747 202.010639,50.5867904 202.685356,50.8935373 C203.359154,51.2002843 203.940236,51.6370554 204.427684,52.2029349" id="Fill-26" fill="#FFFFFF" mask="url(#mask-2)"></path>
                    <path d="M208.809666,54.3176578 C208.301105,54.3176578 207.876997,54.4943807 207.53918,54.8478265 C207.200445,55.2003566 207.031537,55.652694 207.031537,56.2030072 C207.031537,56.7698024 207.198609,57.2285494 207.532755,57.5801639 C207.867818,57.929947 208.291925,58.1066699 208.804158,58.1066699 C209.31731,58.1066699 209.744171,57.9281157 210.084742,57.5737542 C210.424395,57.2184771 210.594221,56.7615614 210.594221,56.2030072 C210.594221,55.644453 210.428067,55.1902843 210.093004,54.8414169 C209.757941,54.4916337 209.330162,54.3176578 208.809666,54.3176578 M208.783045,52.7793446 C209.39901,52.7793446 209.977338,52.9331759 210.519865,53.2408386 C211.061474,53.5475855 211.484663,53.964212 211.788515,54.4907181 C212.092367,55.0181398 212.244751,55.5867663 212.244751,56.1975133 C212.244751,56.8119229 212.091449,57.3860434 211.785761,57.9207904 C211.480073,58.4555373 211.062392,58.8730795 210.535471,59.1743325 C210.007632,59.4755855 209.424714,59.6257542 208.789471,59.6257542 C207.85313,59.6257542 207.054486,59.2942843 206.391704,58.6295133 C205.730758,57.9647422 205.399367,57.158959 205.399367,56.2085012 C205.399367,55.1912 205.772985,54.3432964 206.521139,53.665706 C207.177496,53.0760193 207.931158,52.7793446 208.783045,52.7793446" id="Fill-27" fill="#FFFFFF" mask="url(#mask-2)"></path>
                    <path d="M213.583351,52.9478265 L215.22103,52.9478265 L215.22103,53.6153446 C215.591894,53.3031036 215.928793,53.0851759 216.230809,52.9633928 C216.531907,52.8416096 216.840348,52.7793446 217.156134,52.7793446 C217.80331,52.7793446 218.351345,53.0045976 218.80391,53.4569349 C219.183036,53.8396819 219.373058,54.4055614 219.373058,55.1554892 L219.373058,59.458188 L217.752821,59.458188 L217.752821,56.6068145 C217.752821,55.8294169 217.717938,55.3138988 217.648172,55.0593446 C217.578405,54.8038747 217.456314,54.6097542 217.282815,54.4760675 C217.109317,54.3423807 216.894509,54.2755373 216.63931,54.2755373 C216.307919,54.2755373 216.023345,54.3863325 215.786506,54.6070072 C215.549667,54.8295133 215.38443,55.1353446 215.292632,55.5254169 C215.244897,55.728694 215.22103,56.1691277 215.22103,56.8467181 L215.22103,59.458188 L213.583351,59.458188 L213.583351,52.9478265 Z" id="Fill-28" fill="#FFFFFF" mask="url(#mask-2)"></path>
                    <path d="M224.952272,53.8571711 L223.938821,54.8680627 C223.525729,54.4615084 223.152111,54.2573157 222.81613,54.2573157 C222.632533,54.2573157 222.487492,54.2966892 222.383761,54.3745205 C222.280029,54.4523518 222.227704,54.549412 222.227704,54.6647855 C222.227704,54.7536048 222.260751,54.8332675 222.327764,54.9065205 C222.39294,54.9816048 222.556341,55.0823277 222.81613,55.2096048 L223.415571,55.5090265 C224.04806,55.8203518 224.481347,56.1371711 224.718186,56.4604 C224.954108,56.7836289 225.072527,57.1617976 225.072527,57.597653 C225.072527,58.1763518 224.858638,58.658906 224.433612,59.0453157 C224.007669,59.432641 223.436685,59.6258458 222.719742,59.6258458 C221.767795,59.6258458 221.007707,59.2550024 220.440395,58.5133157 L221.448338,57.4181831 C221.640196,57.6416048 221.865101,57.8219904 222.123054,57.9593398 C222.381007,58.0966892 222.609584,58.1653639 222.809704,58.1653639 C223.025429,58.1653639 223.199846,58.1140867 223.332035,58.0097012 C223.464224,57.9062313 223.530319,57.7871952 223.530319,57.6516771 C223.530319,57.3998699 223.291644,57.1544723 222.81613,56.9154843 L222.263505,56.6398699 C221.208745,56.1097012 220.680906,55.4449301 220.680906,54.6464723 C220.680906,54.1327855 220.87919,53.6923518 221.277593,53.3279181 C221.675079,52.961653 222.183641,52.7794361 222.804196,52.7794361 C223.228303,52.7794361 223.627625,52.8728337 224.001243,53.0577976 C224.374862,53.2436771 224.692483,53.5101349 224.952272,53.8571711" id="Fill-29" fill="#FFFFFF" mask="url(#mask-2)"></path>
                    <path d="M226.35614,52.9478265 L228.012178,52.9478265 L228.012178,56.0830554 C228.012178,56.6938024 228.054405,57.1177542 228.137941,57.3549108 C228.222396,57.5920675 228.358257,57.7761157 228.544607,57.9088867 C228.730957,58.0407422 228.960452,58.1066699 229.233093,58.1066699 C229.505733,58.1066699 229.737064,58.0407422 229.928004,57.9116337 C230.118026,57.7816096 230.259396,57.5911518 230.352112,57.3402602 C230.420042,57.1525494 230.454008,56.7514892 230.454008,56.1370795 L230.454008,52.9478265 L232.091686,52.9478265 L232.091686,55.7067181 C232.091686,56.8430554 232.000806,57.6213687 231.821799,58.0407422 C231.601484,58.5507663 231.277437,58.9426699 230.849657,59.216453 C230.421878,59.4902361 229.877515,59.6257542 229.217487,59.6257542 C228.501462,59.6257542 227.923134,59.4664289 227.481585,59.1477783 C227.039118,58.828212 226.727922,58.3841157 226.547998,57.8127422 C226.419481,57.4180916 226.35614,56.700212 226.35614,55.658188 L226.35614,52.9478265 Z" id="Fill-30" fill="#FFFFFF" mask="url(#mask-2)"></path>
                    <polygon id="Fill-31" fill="#FFFFFF" mask="url(#mask-2)" points="233.555498 59.4576386 235.193177 59.4576386 235.193177 50.4337831 233.555498 50.4337831"></polygon>
                    <polygon id="Fill-32" fill="#FFFFFF" mask="url(#mask-2)" points="236.878865 50.5477831 238.516544 50.5477831 238.516544 52.9477349 239.489603 52.9477349 239.489603 54.3532771 238.516544 54.3532771 238.516544 59.4580964 236.878865 59.4580964 236.878865 54.3532771 236.038913 54.3532771 236.038913 52.9477349 236.878865 52.9477349"></polygon>
                    <path d="M243.457209,54.3176578 C242.948648,54.3176578 242.524541,54.4943807 242.186724,54.8478265 C241.847989,55.2003566 241.67908,55.652694 241.67908,56.2030072 C241.67908,56.7698024 241.846153,57.2285494 242.180298,57.5801639 C242.515361,57.929947 242.939468,58.1066699 243.451702,58.1066699 C243.964853,58.1066699 244.391714,57.9281157 244.732285,57.5737542 C245.071938,57.2184771 245.241765,56.7615614 245.241765,56.2030072 C245.241765,55.644453 245.07561,55.1902843 244.740547,54.8414169 C244.405484,54.4916337 243.977705,54.3176578 243.457209,54.3176578 M243.430588,52.7793446 C244.046553,52.7793446 244.624881,52.9331759 245.167408,53.2408386 C245.709017,53.5475855 246.132206,53.964212 246.436058,54.4907181 C246.73991,55.0181398 246.892295,55.5867663 246.892295,56.1975133 C246.892295,56.8119229 246.738992,57.3860434 246.433304,57.9207904 C246.127616,58.4555373 245.709935,58.8730795 245.183014,59.1743325 C244.655175,59.4755855 244.072257,59.6257542 243.437014,59.6257542 C242.500673,59.6257542 241.70203,59.2942843 241.039247,58.6295133 C240.378301,57.9647422 240.04691,57.158959 240.04691,56.2085012 C240.04691,55.1912 240.420528,54.3432964 241.168683,53.665706 C241.825039,53.0760193 242.578702,52.7793446 243.430588,52.7793446" id="Fill-33" fill="#FFFFFF" mask="url(#mask-2)"></path>
                    <path d="M247.846261,52.9478265 L249.249854,52.9478265 L249.249854,53.7682602 C249.402238,53.4441157 249.604194,53.1987181 249.855721,53.0311518 C250.108166,52.8635855 250.384478,52.7793446 250.684658,52.7793446 C250.895794,52.7793446 251.117945,52.8361157 251.350194,52.9478265 L250.840715,54.3533687 C250.648857,54.2581398 250.490046,54.2105253 250.366119,54.2105253 C250.114592,54.2105253 249.900702,54.366188 249.727204,54.6775133 C249.552787,54.9888386 249.466497,55.5986699 249.466497,56.5088386 L249.472005,56.8247422 L249.472005,59.458188 L247.846261,59.458188 L247.846261,52.9478265 Z" id="Fill-34" fill="#FFFFFF" mask="url(#mask-2)"></path>
                    <path d="M257.061046,55.3889831 C256.953643,55.0263807 256.739753,54.7306217 256.421214,54.5035373 C256.102674,54.2755373 255.733646,54.1619952 255.312292,54.1619952 C254.856056,54.1619952 254.454898,54.290188 254.110655,54.5456578 C253.894012,54.7049831 253.693892,54.9870072 253.509378,55.3889831 L257.061046,55.3889831 Z M258.698725,56.6754892 L253.437775,56.6754892 C253.513968,57.1388145 253.715923,57.5069108 254.046397,57.7797783 C254.375952,58.0526458 254.797305,58.1899952 255.309538,58.1899952 C255.921832,58.1899952 256.446917,57.9766458 256.887548,57.5490313 L258.266356,58.1954892 C257.923031,58.6826217 257.510857,59.0424771 257.031671,59.2759711 C256.550649,59.5094651 255.981501,59.6257542 255.320554,59.6257542 C254.297005,59.6257542 253.463479,59.303441 252.819974,58.6597301 C252.175551,58.0151036 251.85334,57.2084048 251.85334,56.2387181 C251.85334,55.2461398 252.174633,54.420212 252.816302,53.7645976 C253.457971,53.1080675 254.26304,52.7793446 255.23151,52.7793446 C256.259649,52.7793446 257.095012,53.1080675 257.738516,53.7645976 C258.382939,54.420212 258.70515,55.2873446 258.70515,56.3641639 L258.698725,56.6754892 Z" id="Fill-35" fill="#FFFFFF" mask="url(#mask-2)"></path>
                    <path d="M264.021179,53.8571711 L263.007728,54.8680627 C262.594636,54.4615084 262.221018,54.2573157 261.885037,54.2573157 C261.701441,54.2573157 261.5564,54.2966892 261.452668,54.3745205 C261.348936,54.4523518 261.296611,54.549412 261.296611,54.6647855 C261.296611,54.7536048 261.329658,54.8332675 261.396671,54.9065205 C261.461848,54.9816048 261.625248,55.0823277 261.885037,55.2096048 L262.484479,55.5090265 C263.116968,55.8203518 263.550255,56.1371711 263.787094,56.4604 C264.023015,56.7836289 264.141434,57.1617976 264.141434,57.597653 C264.141434,58.1763518 263.927545,58.658906 263.50252,59.0453157 C263.076576,59.432641 262.505592,59.6258458 261.788649,59.6258458 C260.836703,59.6258458 260.076614,59.2550024 259.509302,58.5133157 L260.517245,57.4181831 C260.709103,57.6416048 260.934009,57.8219904 261.191961,57.9593398 C261.449914,58.0966892 261.678491,58.1653639 261.878611,58.1653639 C262.094337,58.1653639 262.268753,58.1140867 262.400942,58.0097012 C262.533132,57.9062313 262.599226,57.7871952 262.599226,57.6516771 C262.599226,57.3998699 262.360551,57.1544723 261.885037,56.9154843 L261.332412,56.6398699 C260.277652,56.1097012 259.749813,55.4449301 259.749813,54.6464723 C259.749813,54.1327855 259.948097,53.6923518 260.346501,53.3279181 C260.743986,52.961653 261.252548,52.7794361 261.873103,52.7794361 C262.29721,52.7794361 262.696532,52.8728337 263.07015,53.0577976 C263.443769,53.2436771 263.76139,53.5101349 264.021179,53.8571711" id="Fill-36" fill="#FFFFFF" mask="url(#mask-2)"></path>
                    <polygon id="Fill-37" fill="#FFFFFF" mask="url(#mask-2)" points="97.2757003 45.4800482 290.969707 45.4800482 290.969707 43.6487229 97.2757003 43.6487229"></polygon>
                    <path d="M6.65931009,46.917547 C6.65931009,46.917547 22.1979757,13.9271373 39.2898653,8.61263133 C39.2898653,8.61263133 42.6193826,7.50559518 42.6193826,11.2698843 C41.923553,18.6748482 40.6769347,26.3188 38.1754363,33.3382699 C37.9505309,33.9691614 37.4300356,35.3234265 38.7253069,35.1558602 C39.1824615,35.0972578 39.5505719,34.763041 39.8709473,34.4324867 C42.0116792,32.2220771 44.0321555,29.9338361 46.238982,27.768294 C48.8478842,25.2090169 51.4962596,22.6891133 54.1905341,20.2195711 C60.3391713,14.5827518 66.7127139,9.00178795 73.7517927,4.48665542 C75.3610136,3.45378795 77.0161334,2.47860723 78.7492817,1.66366747 C79.5561871,1.28458313 82.1090924,-0.161248193 83.0188117,0.198607229 C83.0188117,0.198607229 85.2384899,1.08496867 81.6868211,4.84834217 C81.6868211,4.84834217 75.4720893,13.2623663 70.58843,26.7683904 C70.58843,26.7683904 55.4940672,70.387812 47.503042,61.973788 C47.503042,61.973788 56.1596035,48.9100289 57.9358968,43.3748482 L70.1441271,15.0341735 C70.1441271,15.0341735 75.0277864,6.84173976 66.5924584,13.9271373 C66.5924584,13.9271373 43.2849189,34.0753783 34.1840546,45.5889205 C34.1840546,45.5889205 28.8570104,49.1316193 30.6323858,40.4969205 C30.6323858,40.4969205 38.4021776,17.2482458 36.4037328,13.2623663 C36.4037328,13.2623663 21.9758243,22.1186554 9.54544259,52.6743181 C9.54544259,52.6743181 6.21500726,53.1174988 6.65931009,46.917547" id="Fill-38" fill="#FFFFFF" mask="url(#mask-2)"></path>
                    <path d="M85.6827009,69.7233157 C100.777064,43.3751229 66.5923666,42.4896771 66.5923666,42.4896771 C27.0815432,41.3817253 0.000183596215,72.8228337 0.000183596215,72.8228337 C0.000183596215,72.8228337 2.58246435,78.3589301 6.61882713,74.8162313 C6.61882713,74.8162313 28.8569186,53.1168578 59.0456442,47.8032675 C59.0456442,47.8032675 92.7860385,42.0464964 80.1335054,64.8519904 C80.1335054,64.8519904 77.9514644,67.287653 83.7044517,69.7233157 L85.6827009,69.7233157 Z" id="Fill-39" fill="#FFFFFF" mask="url(#mask-2)"></path>
                </g>
            </g>
        </g>
    </g>
</svg>