<?xml version="1.0" encoding="UTF-8"?>
<svg width="27px" height="36px" viewBox="0 0 27 36" version="1.1" xmlns="http://www.w3.org/2000/svg" xmlns:xlink="http://www.w3.org/1999/xlink">
    <title>Fill 1</title>
    <g id="Page-1" stroke="none" stroke-width="1" fill="none" fill-rule="evenodd">
        <g id="Landing" transform="translate(-638, -6659)" fill="#FFFFFF">
            <g id="Group-9" transform="translate(634.5642, 6522)">
                <g id="Group-3" transform="translate(3, 137.1168)">
                    <path d="M13.4740777,6.4316296 C17.1079282,6.4316296 20.0538377,9.38279287 20.0538377,13.0231239 C20.0538377,16.6633344 17.1079282,19.6154628 13.4740777,19.6154628 C9.84034771,19.6154628 6.89431775,16.6633344 6.89431775,13.0231239 C6.89431775,9.38279287 9.84034771,6.4316296 13.4740777,6.4316296 M13.4740777,0 C20.6549429,0 26.4741379,5.83138278 26.4741379,13.0231239 C26.4741379,20.3065611 18.0156681,29.0257645 13.4740777,35 C8.93260772,29.0257645 0.474137931,20.3065611 0.474137931,13.0231239 C0.474137931,5.83138278 6.29333294,0 13.4740777,0" id="Fill-1"></path>
                </g>
            </g>
        </g>
    </g>
</svg>