<?xml version="1.0" encoding="UTF-8"?>
<svg width="31px" height="36px" viewBox="0 0 31 36" version="1.1" xmlns="http://www.w3.org/2000/svg" xmlns:xlink="http://www.w3.org/1999/xlink">
    <title>Fill 1</title>
    <g id="Page-1" stroke="none" stroke-width="1" fill="none" fill-rule="evenodd">
        <g id="Landing" transform="translate(-635, -6765)" fill="#FFFFFF">
            <g id="Group-9" transform="translate(634.5642, 6522)">
                <g id="Group-3" transform="translate(1, 243.1168)">
                    <path d="M6.59026221,0.131738783 C3.57712321,1.28926798 -3.93732887,5.59875994 2.58605288,15.1905038 C6.01045042,20.2245118 9.64147542,25.1366597 13.4538877,29.8882124 C20.7167933,38.9451574 27.5509005,33.7140811 29.5731118,31.2141121 C30.138521,30.5151838 30.1430842,29.5483614 29.581953,28.8449094 L25.3833798,23.5772185 C24.8112684,22.8606191 23.8347433,22.6468692 23.0117984,23.0588184 L21.3348219,23.8985502 C19.8735992,24.6316897 18.190776,24.3956035 16.9907966,23.2905222 C14.2122347,20.7307541 12.0505606,17.80894 10.4249201,14.4107125 C9.72347044,12.9442921 10.0026813,11.2830652 11.1476171,10.1212949 L12.4593949,8.78846821 C13.1038046,8.1340712 13.1923592,7.14618478 12.6750062,6.39099169 L8.87172036,0.836039036 C8.36349379,0.0941346344 7.43160249,-0.191572072 6.59026221,0.131738783" id="Fill-1"></path>
                </g>
            </g>
        </g>
    </g>
</svg>