<?xml version="1.0" encoding="UTF-8"?>
<svg width="34px" height="35px" viewBox="0 0 34 35" version="1.1" xmlns="http://www.w3.org/2000/svg" xmlns:xlink="http://www.w3.org/1999/xlink">
    <title>Path</title>
    <g id="Page-1" stroke="none" stroke-width="1" fill="none" fill-rule="evenodd">
        <g id="Landing" transform="translate(-784, -6869)" fill="#FFFFFF">
            <g id="Group-9" transform="translate(634.5642, 6522)">
                <g id="Redes-sociales" transform="translate(53, 347.1168)">
                    <path d="M126.025767,0 L123.625443,2.79812601 L115.322203,12.5286344 L107.412711,0.958842039 L106.757168,0 L97.0379747,0 L99.408297,3.46820502 L109.92496,18.8533389 L97,34 L99.8040174,34 L111.175125,20.6805398 L119.625235,33.0421649 L120.280751,34 L130,34 L127.62965,30.531795 L116.572341,14.3578211 L128.829812,0 L126.025767,0 Z M112.159045,19.4062324 L110.939293,17.613443 L101,3 L105.275448,3 L113.313476,14.8182352 L114.533228,16.6110246 L125,32 L120.724579,32 L112.159045,19.4062324 Z" id="Fill-1"></path>
                </g>
            </g>
        </g>
    </g>
</svg>